<svg width="850" height="218" viewBox="0 0 850 218" fill="none" xmlns="http://www.w3.org/2000/svg">
<path d="M42.4281 148.539C42.1298 145.748 40.8727 143.575 38.6568 142.019C36.4622 140.464 33.6071 139.686 30.0914 139.686C27.6199 139.686 25.4998 140.059 23.7314 140.805C21.9629 141.55 20.6099 142.562 19.6724 143.841C18.7349 145.119 18.2555 146.579 18.2342 148.219C18.2342 149.583 18.5431 150.766 19.161 151.767C19.8002 152.768 20.6632 153.621 21.7498 154.324C22.8365 155.006 24.0403 155.581 25.3613 156.05C26.6824 156.518 28.014 156.913 29.3564 157.232L35.4927 158.766C37.9643 159.342 40.34 160.119 42.6199 161.099C44.921 162.08 46.9771 163.315 48.7882 164.807C50.6206 166.298 52.0694 168.099 53.1348 170.208C54.2001 172.317 54.7328 174.789 54.7328 177.623C54.7328 181.458 53.7527 184.835 51.7924 187.754C49.8322 190.652 46.9984 192.921 43.291 194.562C39.6049 196.181 35.1412 196.991 29.8997 196.991C24.8074 196.991 20.3862 196.202 16.6362 194.626C12.9075 193.049 9.98846 190.748 7.87908 187.722C5.79102 184.697 4.66175 181.011 4.4913 176.664H16.1568C16.3272 178.944 17.0304 180.84 18.2662 182.353C19.502 183.866 21.1106 184.995 23.0922 185.741C25.095 186.487 27.3322 186.859 29.8038 186.859C32.3819 186.859 34.6404 186.476 36.5794 185.709C38.5396 184.92 40.0737 183.834 41.1816 182.449C42.2896 181.043 42.8542 179.402 42.8755 177.527C42.8542 175.822 42.3535 174.416 41.3734 173.308C40.3933 172.179 39.019 171.241 37.2505 170.496C35.5034 169.729 33.4579 169.047 31.1142 168.45L23.6674 166.533C18.2768 165.148 14.0154 163.049 10.8833 160.237C7.77255 157.403 6.21715 153.642 6.21715 148.955C6.21715 145.098 7.26119 141.721 9.34925 138.823C11.4586 135.925 14.3244 133.678 17.9466 132.08C21.5687 130.46 25.6703 129.651 30.2512 129.651C34.8961 129.651 38.9657 130.46 42.4601 132.08C45.9757 133.678 48.7349 135.904 50.7378 138.759C52.7406 141.593 53.774 144.853 53.8379 148.539H42.4281ZM86.2056 196.959C81.4116 196.959 77.2567 195.904 73.7411 193.795C70.2255 191.685 67.4982 188.734 65.5593 184.942C63.6417 181.149 62.6829 176.717 62.6829 171.646C62.6829 166.575 63.6417 162.133 65.5593 158.319C67.4982 154.505 70.2255 151.543 73.7411 149.434C77.2567 147.325 81.4116 146.27 86.2056 146.27C90.9996 146.27 95.1545 147.325 98.6701 149.434C102.186 151.543 104.902 154.505 106.82 158.319C108.759 162.133 109.728 166.575 109.728 171.646C109.728 176.717 108.759 181.149 106.82 184.942C104.902 188.734 102.186 191.685 98.6701 193.795C95.1545 195.904 90.9996 196.959 86.2056 196.959ZM86.2695 187.69C88.869 187.69 91.0423 186.977 92.7894 185.549C94.5366 184.1 95.8363 182.161 96.6886 179.732C97.5621 177.303 97.9989 174.597 97.9989 171.614C97.9989 168.61 97.5621 165.893 96.6886 163.464C95.8363 161.014 94.5366 159.065 92.7894 157.616C91.0423 156.167 88.869 155.442 86.2695 155.442C83.6062 155.442 81.3903 156.167 79.6218 157.616C77.8746 159.065 76.5643 161.014 75.6907 163.464C74.8384 165.893 74.4123 168.61 74.4123 171.614C74.4123 174.597 74.8384 177.303 75.6907 179.732C76.5643 182.161 77.8746 184.1 79.6218 185.549C81.3903 186.977 83.6062 187.69 86.2695 187.69ZM129.36 130.545V137.065C129.36 138.94 128.998 140.89 128.273 142.914C127.57 144.917 126.601 146.835 125.365 148.667C124.129 150.478 122.723 152.033 121.146 153.333L115.777 149.849C116.949 148.081 117.971 146.174 118.845 144.129C119.719 142.062 120.155 139.729 120.155 137.129V130.545H129.36ZM148.432 167.236V196H136.863V146.909H147.921V155.251H148.496C149.625 152.502 151.426 150.318 153.897 148.699C156.39 147.08 159.469 146.27 163.134 146.27C166.522 146.27 169.473 146.994 171.987 148.443C174.522 149.892 176.483 151.991 177.868 154.739C179.274 157.488 179.966 160.822 179.945 164.743V196H168.375V166.533C168.375 163.251 167.523 160.684 165.819 158.83C164.135 156.977 161.802 156.05 158.819 156.05C156.795 156.05 154.995 156.497 153.418 157.392C151.863 158.266 150.637 159.533 149.743 161.195C148.869 162.857 148.432 164.871 148.432 167.236ZM213.056 215.432C208.901 215.432 205.332 214.867 202.349 213.738C199.366 212.63 196.969 211.138 195.158 209.263C193.347 207.388 192.09 205.311 191.387 203.031L201.806 200.506C202.275 201.465 202.956 202.413 203.851 203.351C204.746 204.31 205.95 205.098 207.463 205.716C208.997 206.355 210.925 206.675 213.248 206.675C216.529 206.675 219.245 205.876 221.397 204.278C223.549 202.701 224.625 200.102 224.625 196.479V187.179H224.05C223.453 188.372 222.58 189.597 221.429 190.854C220.3 192.112 218.798 193.166 216.923 194.018C215.069 194.871 212.736 195.297 209.924 195.297C206.152 195.297 202.733 194.413 199.664 192.644C196.618 190.854 194.189 188.191 192.377 184.654C190.588 181.096 189.693 176.643 189.693 171.295C189.693 165.904 190.588 161.355 192.377 157.648C194.189 153.919 196.628 151.096 199.696 149.178C202.765 147.239 206.184 146.27 209.956 146.27C212.832 146.27 215.197 146.76 217.051 147.74C218.926 148.699 220.417 149.86 221.525 151.224C222.633 152.566 223.475 153.834 224.05 155.027H224.689V146.909H236.099V196.799C236.099 200.996 235.098 204.469 233.095 207.218C231.092 209.967 228.354 212.023 224.881 213.386C221.408 214.75 217.466 215.432 213.056 215.432ZM213.152 186.22C215.602 186.22 217.69 185.624 219.416 184.43C221.142 183.237 222.452 181.522 223.347 179.285C224.242 177.048 224.689 174.363 224.689 171.231C224.689 168.141 224.242 165.435 223.347 163.113C222.473 160.79 221.174 158.99 219.448 157.712C217.743 156.412 215.645 155.762 213.152 155.762C210.574 155.762 208.422 156.433 206.696 157.776C204.97 159.118 203.67 160.961 202.797 163.305C201.923 165.627 201.486 168.269 201.486 171.231C201.486 174.235 201.923 176.866 202.797 179.125C203.691 181.362 205.002 183.109 206.728 184.366C208.475 185.602 210.616 186.22 213.152 186.22ZM247.956 196V146.909H259.526V196H247.956ZM253.773 139.942C251.941 139.942 250.364 139.335 249.043 138.12C247.722 136.884 247.061 135.403 247.061 133.678C247.061 131.93 247.722 130.45 249.043 129.235C250.364 127.999 251.941 127.381 253.773 127.381C255.627 127.381 257.203 127.999 258.503 129.235C259.824 130.45 260.485 131.93 260.485 133.678C260.485 135.403 259.824 136.884 258.503 138.12C257.203 139.335 255.627 139.942 253.773 139.942ZM326.507 214.409V188.266H326.027C325.431 189.459 324.568 190.727 323.438 192.069C322.309 193.39 320.818 194.519 318.964 195.457C317.11 196.394 314.777 196.863 311.965 196.863C308.108 196.863 304.656 195.872 301.61 193.891C298.563 191.909 296.155 189.033 294.387 185.261C292.618 181.49 291.734 176.909 291.734 171.518C291.734 166.064 292.629 161.462 294.419 157.712C296.23 153.94 298.669 151.096 301.737 149.178C304.806 147.239 308.225 146.27 311.997 146.27C314.873 146.27 317.238 146.76 319.092 147.74C320.945 148.699 322.416 149.86 323.502 151.224C324.589 152.566 325.431 153.834 326.027 155.027H326.73V146.909H338.108V214.409H326.507ZM315.193 187.371C317.643 187.371 319.731 186.71 321.457 185.389C323.183 184.047 324.493 182.183 325.388 179.796C326.283 177.41 326.73 174.629 326.73 171.455C326.73 168.28 326.283 165.521 325.388 163.177C324.514 160.833 323.215 159.011 321.489 157.712C319.784 156.412 317.686 155.762 315.193 155.762C312.615 155.762 310.463 156.433 308.737 157.776C307.011 159.118 305.711 160.972 304.838 163.337C303.964 165.702 303.527 168.408 303.527 171.455C303.527 174.523 303.964 177.261 304.838 179.668C305.732 182.055 307.043 183.94 308.769 185.325C310.516 186.689 312.657 187.371 315.193 187.371ZM364.124 196.991C361.013 196.991 358.211 196.437 355.718 195.329C353.247 194.2 351.286 192.538 349.838 190.343C348.41 188.148 347.696 185.442 347.696 182.225C347.696 179.455 348.208 177.165 349.23 175.354C350.253 173.543 351.649 172.094 353.417 171.007C355.186 169.92 357.178 169.1 359.394 168.546C361.631 167.971 363.943 167.555 366.329 167.3C369.205 167.001 371.539 166.735 373.328 166.501C375.118 166.245 376.418 165.862 377.227 165.35C378.058 164.817 378.474 163.997 378.474 162.889V162.697C378.474 160.29 377.76 158.425 376.333 157.104C374.905 155.783 372.849 155.123 370.164 155.123C367.33 155.123 365.083 155.741 363.421 156.977C361.78 158.212 360.672 159.672 360.097 161.355L349.294 159.821C350.146 156.838 351.553 154.345 353.513 152.342C355.473 150.318 357.87 148.805 360.704 147.804C363.538 146.781 366.67 146.27 370.1 146.27C372.465 146.27 374.82 146.547 377.164 147.101C379.507 147.655 381.649 148.571 383.588 149.849C385.526 151.107 387.082 152.822 388.254 154.995C389.447 157.168 390.044 159.885 390.044 163.145V196H378.921V189.256H378.538C377.835 190.62 376.844 191.898 375.566 193.092C374.308 194.263 372.721 195.212 370.803 195.936C368.907 196.639 366.681 196.991 364.124 196.991ZM367.128 188.489C369.45 188.489 371.464 188.031 373.169 187.115C374.873 186.178 376.183 184.942 377.1 183.408C378.037 181.874 378.506 180.201 378.506 178.39V172.605C378.144 172.903 377.526 173.18 376.652 173.436C375.8 173.692 374.841 173.915 373.776 174.107C372.71 174.299 371.656 174.469 370.612 174.619C369.568 174.768 368.662 174.896 367.895 175.002C366.169 175.237 364.624 175.62 363.261 176.153C361.897 176.685 360.821 177.431 360.033 178.39C359.244 179.327 358.85 180.542 358.85 182.033C358.85 184.164 359.628 185.773 361.183 186.859C362.739 187.946 364.72 188.489 367.128 188.489ZM419.894 196.863C416.038 196.863 412.586 195.872 409.539 193.891C406.492 191.909 404.085 189.033 402.316 185.261C400.548 181.49 399.664 176.909 399.664 171.518C399.664 166.064 400.558 161.462 402.348 157.712C404.159 153.94 406.599 151.096 409.667 149.178C412.735 147.239 416.155 146.27 419.926 146.27C422.803 146.27 425.168 146.76 427.021 147.74C428.875 148.699 430.345 149.86 431.432 151.224C432.519 152.566 433.36 153.834 433.957 155.027H434.436V130.545H446.038V196H434.66V188.266H433.957C433.36 189.459 432.497 190.727 431.368 192.069C430.239 193.39 428.747 194.519 426.894 195.457C425.04 196.394 422.707 196.863 419.894 196.863ZM423.122 187.371C425.573 187.371 427.661 186.71 429.387 185.389C431.112 184.047 432.423 182.183 433.318 179.796C434.213 177.41 434.66 174.629 434.66 171.455C434.66 168.28 434.213 165.521 433.318 163.177C432.444 160.833 431.144 159.011 429.419 157.712C427.714 156.412 425.615 155.762 423.122 155.762C420.544 155.762 418.392 156.433 416.666 157.776C414.941 159.118 413.641 160.972 412.767 163.337C411.894 165.702 411.457 168.408 411.457 171.455C411.457 174.523 411.894 177.261 412.767 179.668C413.662 182.055 414.972 183.94 416.698 185.325C418.445 186.689 420.587 187.371 423.122 187.371ZM472.493 196.991C469.382 196.991 466.58 196.437 464.087 195.329C461.616 194.2 459.656 192.538 458.207 190.343C456.779 188.148 456.065 185.442 456.065 182.225C456.065 179.455 456.577 177.165 457.599 175.354C458.622 173.543 460.018 172.094 461.786 171.007C463.555 169.92 465.547 169.1 467.763 168.546C470 167.971 472.312 167.555 474.698 167.3C477.575 167.001 479.908 166.735 481.697 166.501C483.487 166.245 484.787 165.862 485.597 165.35C486.428 164.817 486.843 163.997 486.843 162.889V162.697C486.843 160.29 486.129 158.425 484.702 157.104C483.274 155.783 481.218 155.123 478.533 155.123C475.7 155.123 473.452 155.741 471.79 156.977C470.149 158.212 469.041 159.672 468.466 161.355L457.663 159.821C458.516 156.838 459.922 154.345 461.882 152.342C463.842 150.318 466.239 148.805 469.073 147.804C471.907 146.781 475.039 146.27 478.469 146.27C480.835 146.27 483.189 146.547 485.533 147.101C487.876 147.655 490.018 148.571 491.957 149.849C493.896 151.107 495.451 152.822 496.623 154.995C497.816 157.168 498.413 159.885 498.413 163.145V196H487.29V189.256H486.907C486.204 190.62 485.213 191.898 483.935 193.092C482.678 194.263 481.09 195.212 479.173 195.936C477.276 196.639 475.05 196.991 472.493 196.991ZM475.497 188.489C477.82 188.489 479.833 188.031 481.538 187.115C483.242 186.178 484.553 184.942 485.469 183.408C486.406 181.874 486.875 180.201 486.875 178.39V172.605C486.513 172.903 485.895 173.18 485.021 173.436C484.169 173.692 483.21 173.915 482.145 174.107C481.08 174.299 480.025 174.469 478.981 174.619C477.937 174.768 477.031 174.896 476.264 175.002C474.538 175.237 472.994 175.62 471.63 176.153C470.266 176.685 469.19 177.431 468.402 178.39C467.614 179.327 467.219 180.542 467.219 182.033C467.219 184.164 467.997 185.773 469.553 186.859C471.108 187.946 473.089 188.489 475.497 188.489ZM510.046 196V146.909H521.104V155.251H521.68C522.702 152.438 524.396 150.244 526.761 148.667C529.126 147.069 531.95 146.27 535.231 146.27C538.555 146.27 541.357 147.08 543.636 148.699C545.938 150.297 547.557 152.481 548.494 155.251H549.006C550.092 152.523 551.925 150.35 554.503 148.731C557.102 147.09 560.181 146.27 563.739 146.27C568.256 146.27 571.942 147.697 574.798 150.553C577.653 153.408 579.08 157.573 579.08 163.049V196H567.479V164.839C567.479 161.792 566.669 159.565 565.05 158.159C563.43 156.732 561.449 156.018 559.105 156.018C556.314 156.018 554.13 156.891 552.553 158.638C550.998 160.364 550.22 162.612 550.22 165.382V196H538.874V164.359C538.874 161.824 538.107 159.8 536.573 158.287C535.06 156.774 533.079 156.018 530.629 156.018C528.967 156.018 527.454 156.444 526.09 157.296C524.727 158.127 523.64 159.31 522.83 160.844C522.021 162.357 521.616 164.125 521.616 166.149V196H510.046ZM645.901 214.409V188.266H645.422C644.825 189.459 643.962 190.727 642.833 192.069C641.704 193.39 640.212 194.519 638.358 195.457C636.505 196.394 634.172 196.863 631.359 196.863C627.503 196.863 624.051 195.872 621.004 193.891C617.957 191.909 615.55 189.033 613.781 185.261C612.013 181.49 611.128 176.909 611.128 171.518C611.128 166.064 612.023 161.462 613.813 157.712C615.624 153.94 618.064 151.096 621.132 149.178C624.2 147.239 627.62 146.27 631.391 146.27C634.268 146.27 636.633 146.76 638.486 147.74C640.34 148.699 641.81 149.86 642.897 151.224C643.983 152.566 644.825 153.834 645.422 155.027H646.125V146.909H657.503V214.409H645.901ZM634.587 187.371C637.037 187.371 639.126 186.71 640.851 185.389C642.577 184.047 643.888 182.183 644.782 179.796C645.677 177.41 646.125 174.629 646.125 171.455C646.125 168.28 645.677 165.521 644.782 163.177C643.909 160.833 642.609 159.011 640.883 157.712C639.179 156.412 637.08 155.762 634.587 155.762C632.009 155.762 629.857 156.433 628.131 157.776C626.405 159.118 625.106 160.972 624.232 163.337C623.358 165.702 622.922 168.408 622.922 171.455C622.922 174.523 623.358 177.261 624.232 179.668C625.127 182.055 626.437 183.94 628.163 185.325C629.91 186.689 632.052 187.371 634.587 187.371ZM690.805 196.959C686.011 196.959 681.856 195.904 678.341 193.795C674.825 191.685 672.098 188.734 670.159 184.942C668.241 181.149 667.282 176.717 667.282 171.646C667.282 166.575 668.241 162.133 670.159 158.319C672.098 154.505 674.825 151.543 678.341 149.434C681.856 147.325 686.011 146.27 690.805 146.27C695.599 146.27 699.754 147.325 703.27 149.434C706.785 151.543 709.502 154.505 711.42 158.319C713.358 162.133 714.328 166.575 714.328 171.646C714.328 176.717 713.358 181.149 711.42 184.942C709.502 188.734 706.785 191.685 703.27 193.795C699.754 195.904 695.599 196.959 690.805 196.959ZM690.869 187.69C693.469 187.69 695.642 186.977 697.389 185.549C699.136 184.1 700.436 182.161 701.288 179.732C702.162 177.303 702.599 174.597 702.599 171.614C702.599 168.61 702.162 165.893 701.288 163.464C700.436 161.014 699.136 159.065 697.389 157.616C695.642 156.167 693.469 155.442 690.869 155.442C688.206 155.442 685.99 156.167 684.221 157.616C682.474 159.065 681.164 161.014 680.29 163.464C679.438 165.893 679.012 168.61 679.012 171.614C679.012 174.597 679.438 177.303 680.29 179.732C681.164 182.161 682.474 184.1 684.221 185.549C685.99 186.977 688.206 187.69 690.869 187.69ZM735.717 130.545V196H724.148V130.545H735.717ZM765.832 196.863C761.975 196.863 758.524 195.872 755.477 193.891C752.43 191.909 750.022 189.033 748.254 185.261C746.485 181.49 745.601 176.909 745.601 171.518C745.601 166.064 746.496 161.462 748.286 157.712C750.097 153.94 752.536 151.096 755.605 149.178C758.673 147.239 762.093 146.27 765.864 146.27C768.74 146.27 771.105 146.76 772.959 147.74C774.813 148.699 776.283 149.86 777.369 151.224C778.456 152.566 779.298 153.834 779.894 155.027H780.374V130.545H791.975V196H780.597V188.266H779.894C779.298 189.459 778.435 190.727 777.306 192.069C776.176 193.39 774.685 194.519 772.831 195.457C770.977 196.394 768.644 196.863 765.832 196.863ZM769.06 187.371C771.51 187.371 773.598 186.71 775.324 185.389C777.05 184.047 778.36 182.183 779.255 179.796C780.15 177.41 780.597 174.629 780.597 171.455C780.597 168.28 780.15 165.521 779.255 163.177C778.382 160.833 777.082 159.011 775.356 157.712C773.651 156.412 771.553 155.762 769.06 155.762C766.482 155.762 764.33 156.433 762.604 157.776C760.878 159.118 759.578 160.972 758.705 163.337C757.831 165.702 757.394 168.408 757.394 171.455C757.394 174.523 757.831 177.261 758.705 179.668C759.6 182.055 760.91 183.94 762.636 185.325C764.383 186.689 766.524 187.371 769.06 187.371ZM804.304 196V146.909H815.874V196H804.304ZM810.121 139.942C808.288 139.942 806.712 139.335 805.391 138.12C804.07 136.884 803.409 135.403 803.409 133.678C803.409 131.93 804.07 130.45 805.391 129.235C806.712 127.999 808.288 127.381 810.121 127.381C811.974 127.381 813.551 127.999 814.851 129.235C816.172 130.45 816.832 131.93 816.832 133.678C816.832 135.403 816.172 136.884 814.851 138.12C813.551 139.335 811.974 139.942 810.121 139.942ZM841.929 130.545L840.874 176.76H830.583L829.561 130.545H841.929ZM835.729 196.703C833.79 196.703 832.128 196.021 830.743 194.658C829.379 193.294 828.698 191.632 828.698 189.672C828.698 187.754 829.379 186.114 830.743 184.75C832.128 183.386 833.79 182.705 835.729 182.705C837.625 182.705 839.266 183.386 840.651 184.75C842.057 186.114 842.76 187.754 842.76 189.672C842.76 190.972 842.43 192.154 841.769 193.219C841.13 194.285 840.278 195.137 839.213 195.776C838.169 196.394 837.007 196.703 835.729 196.703Z" fill="black"/>
<path d="M184.974 33.7841V23.1818H240.679V33.7841H219.099V93H206.554V33.7841H184.974ZM266.119 94.0227C261.006 94.0227 256.574 92.8977 252.824 90.6477C249.074 88.3977 246.165 85.25 244.097 81.2045C242.051 77.1591 241.028 72.4318 241.028 67.0227C241.028 61.6136 242.051 56.875 244.097 52.8068C246.165 48.7386 249.074 45.5795 252.824 43.3295C256.574 41.0795 261.006 39.9545 266.119 39.9545C271.233 39.9545 275.665 41.0795 279.415 43.3295C283.165 45.5795 286.063 48.7386 288.108 52.8068C290.176 56.875 291.21 61.6136 291.21 67.0227C291.21 72.4318 290.176 77.1591 288.108 81.2045C286.063 85.25 283.165 88.3977 279.415 90.6477C275.665 92.8977 271.233 94.0227 266.119 94.0227ZM266.188 84.1364C268.96 84.1364 271.278 83.375 273.142 81.8523C275.006 80.3068 276.392 78.2386 277.301 75.6477C278.233 73.0568 278.699 70.1705 278.699 66.9886C278.699 63.7841 278.233 60.8864 277.301 58.2955C276.392 55.6818 275.006 53.6023 273.142 52.0568C271.278 50.5114 268.96 49.7386 266.188 49.7386C263.347 49.7386 260.983 50.5114 259.097 52.0568C257.233 53.6023 255.835 55.6818 254.903 58.2955C253.994 60.8864 253.54 63.7841 253.54 66.9886C253.54 70.1705 253.994 73.0568 254.903 75.6477C255.835 78.2386 257.233 80.3068 259.097 81.8523C260.983 83.375 263.347 84.1364 266.188 84.1364ZM312.151 23.1818V30.1364C312.151 32.1364 311.764 34.2159 310.991 36.375C310.241 38.5114 309.207 40.5568 307.889 42.5114C306.571 44.4432 305.071 46.1023 303.389 47.4886L297.662 43.7727C298.912 41.8864 300.003 39.8523 300.935 37.6705C301.866 35.4659 302.332 32.9773 302.332 30.2045V23.1818H312.151ZM332.307 40.6364L342.875 59.9659L353.614 40.6364H366.67L350.886 66.8182L366.943 93H353.955L342.875 74.1477L331.898 93H318.807L334.761 66.8182L319.216 40.6364H332.307ZM402.364 40.6364V50.1818H372.261V40.6364H402.364ZM379.693 28.0909H392.034V77.25C392.034 78.9091 392.284 80.1818 392.784 81.0682C393.307 81.9318 393.989 82.5227 394.83 82.8409C395.67 83.1591 396.602 83.3182 397.625 83.3182C398.398 83.3182 399.102 83.2614 399.739 83.1477C400.398 83.0341 400.898 82.9318 401.239 82.8409L403.318 92.4886C402.659 92.7159 401.716 92.9659 400.489 93.2386C399.284 93.5114 397.807 93.6705 396.057 93.7159C392.966 93.8068 390.182 93.3409 387.705 92.3182C385.227 91.2727 383.261 89.6591 381.807 87.4773C380.375 85.2955 379.67 82.5682 379.693 79.2955V28.0909ZM427.753 94.0568C424.435 94.0568 421.446 93.4659 418.787 92.2841C416.151 91.0795 414.06 89.3068 412.514 86.9659C410.991 84.625 410.23 81.7386 410.23 78.3068C410.23 75.3523 410.776 72.9091 411.866 70.9773C412.957 69.0455 414.446 67.5 416.332 66.3409C418.219 65.1818 420.344 64.3068 422.707 63.7159C425.094 63.1023 427.56 62.6591 430.105 62.3864C433.173 62.0682 435.662 61.7841 437.571 61.5341C439.48 61.2614 440.866 60.8523 441.73 60.3068C442.616 59.7386 443.06 58.8636 443.06 57.6818V57.4773C443.06 54.9091 442.298 52.9205 440.776 51.5114C439.253 50.1023 437.06 49.3977 434.196 49.3977C431.173 49.3977 428.776 50.0568 427.003 51.375C425.253 52.6932 424.071 54.25 423.457 56.0455L411.935 54.4091C412.844 51.2273 414.344 48.5682 416.435 46.4318C418.526 44.2727 421.082 42.6591 424.105 41.5909C427.128 40.5 430.469 39.9545 434.128 39.9545C436.651 39.9545 439.162 40.25 441.662 40.8409C444.162 41.4318 446.446 42.4091 448.514 43.7727C450.582 45.1136 452.241 46.9432 453.491 49.2614C454.764 51.5795 455.401 54.4773 455.401 57.9545V93H443.537V85.8068H443.128C442.378 87.2614 441.321 88.625 439.957 89.8977C438.616 91.1477 436.923 92.1591 434.878 92.9318C432.855 93.6818 430.48 94.0568 427.753 94.0568ZM430.957 84.9886C433.435 84.9886 435.582 84.5 437.401 83.5227C439.219 82.5227 440.616 81.2045 441.594 79.5682C442.594 77.9318 443.094 76.1477 443.094 74.2159V68.0455C442.707 68.3636 442.048 68.6591 441.116 68.9318C440.207 69.2045 439.185 69.4432 438.048 69.6477C436.912 69.8523 435.787 70.0341 434.673 70.1932C433.56 70.3523 432.594 70.4886 431.776 70.6023C429.935 70.8523 428.287 71.2614 426.832 71.8295C425.378 72.3977 424.23 73.1932 423.389 74.2159C422.548 75.2159 422.128 76.5114 422.128 78.1023C422.128 80.375 422.957 82.0909 424.616 83.25C426.276 84.4091 428.389 84.9886 430.957 84.9886ZM480.151 62.3182V93H467.81V40.6364H479.605V49.5341H480.219C481.423 46.6023 483.344 44.2727 485.98 42.5455C488.639 40.8182 491.923 39.9545 495.832 39.9545C499.446 39.9545 502.594 40.7273 505.276 42.2727C507.98 43.8182 510.071 46.0568 511.548 48.9886C513.048 51.9205 513.787 55.4773 513.764 59.6591V93H501.423V61.5682C501.423 58.0682 500.514 55.3295 498.696 53.3523C496.901 51.375 494.412 50.3864 491.23 50.3864C489.071 50.3864 487.151 50.8636 485.469 51.8182C483.81 52.75 482.503 54.1023 481.548 55.875C480.616 57.6477 480.151 59.7955 480.151 62.3182ZM549.082 113.727C544.651 113.727 540.844 113.125 537.662 111.92C534.48 110.739 531.923 109.148 529.991 107.148C528.06 105.148 526.719 102.932 525.969 100.5L537.082 97.8068C537.582 98.8295 538.31 99.8409 539.264 100.841C540.219 101.864 541.503 102.705 543.116 103.364C544.753 104.045 546.81 104.386 549.287 104.386C552.787 104.386 555.685 103.534 557.98 101.83C560.276 100.148 561.423 97.375 561.423 93.5114V83.5909H560.81C560.173 84.8636 559.241 86.1705 558.014 87.5114C556.81 88.8523 555.207 89.9773 553.207 90.8864C551.23 91.7955 548.741 92.25 545.741 92.25C541.719 92.25 538.071 91.3068 534.798 89.4205C531.548 87.5114 528.957 84.6705 527.026 80.8977C525.116 77.1023 524.162 72.3523 524.162 66.6477C524.162 60.8977 525.116 56.0455 527.026 52.0909C528.957 48.1136 531.56 45.1023 534.832 43.0568C538.105 40.9886 541.753 39.9545 545.776 39.9545C548.844 39.9545 551.366 40.4773 553.344 41.5227C555.344 42.5455 556.935 43.7841 558.116 45.2386C559.298 46.6705 560.196 48.0227 560.81 49.2955H561.491V40.6364H573.662V93.8523C573.662 98.3295 572.594 102.034 570.457 104.966C568.321 107.898 565.401 110.091 561.696 111.545C557.991 113 553.787 113.727 549.082 113.727ZM549.185 82.5682C551.798 82.5682 554.026 81.9318 555.866 80.6591C557.707 79.3864 559.105 77.5568 560.06 75.1705C561.014 72.7841 561.491 69.9205 561.491 66.5795C561.491 63.2841 561.014 60.3977 560.06 57.9205C559.128 55.4432 557.741 53.5227 555.901 52.1591C554.082 50.7727 551.844 50.0795 549.185 50.0795C546.435 50.0795 544.139 50.7955 542.298 52.2273C540.457 53.6591 539.071 55.625 538.139 58.125C537.207 60.6023 536.741 63.4205 536.741 66.5795C536.741 69.7841 537.207 72.5909 538.139 75C539.094 77.3864 540.491 79.25 542.332 80.5909C544.196 81.9091 546.48 82.5682 549.185 82.5682ZM601.412 23.1818L600.287 72.4773H589.31L588.219 23.1818H601.412ZM594.798 93.75C592.73 93.75 590.957 93.0227 589.48 91.5682C588.026 90.1136 587.298 88.3409 587.298 86.25C587.298 84.2045 588.026 82.4545 589.48 81C590.957 79.5455 592.73 78.8182 594.798 78.8182C596.821 78.8182 598.571 79.5455 600.048 81C601.548 82.4545 602.298 84.2045 602.298 86.25C602.298 87.6364 601.946 88.8977 601.241 90.0341C600.56 91.1705 599.651 92.0795 598.514 92.7614C597.401 93.4205 596.162 93.75 594.798 93.75ZM631.037 23.1818L629.912 72.4773H618.935L617.844 23.1818H631.037ZM624.423 93.75C622.355 93.75 620.582 93.0227 619.105 91.5682C617.651 90.1136 616.923 88.3409 616.923 86.25C616.923 84.2045 617.651 82.4545 619.105 81C620.582 79.5455 622.355 78.8182 624.423 78.8182C626.446 78.8182 628.196 79.5455 629.673 81C631.173 82.4545 631.923 84.2045 631.923 86.25C631.923 87.6364 631.571 88.8977 630.866 90.0341C630.185 91.1705 629.276 92.0795 628.139 92.7614C627.026 93.4205 625.787 93.75 624.423 93.75ZM660.662 23.1818L659.537 72.4773H648.56L647.469 23.1818H660.662ZM654.048 93.75C651.98 93.75 650.207 93.0227 648.73 91.5682C647.276 90.1136 646.548 88.3409 646.548 86.25C646.548 84.2045 647.276 82.4545 648.73 81C650.207 79.5455 651.98 78.8182 654.048 78.8182C656.071 78.8182 657.821 79.5455 659.298 81C660.798 82.4545 661.548 84.2045 661.548 86.25C661.548 87.6364 661.196 88.8977 660.491 90.0341C659.81 91.1705 658.901 92.0795 657.764 92.7614C656.651 93.4205 655.412 93.75 654.048 93.75Z" fill="#FF3737"/>
</svg>
